<?xml version="1.0" encoding="UTF-8" standalone="no"?>
<!-- Created with Inkscape (http://www.inkscape.org/) -->

<svg
   version="1.1"
   id="svg1"
   width="500"
   height="500"
   viewBox="0 0 500 500"
   sodipodi:docname="scholarwolf_icon.svg"
   inkscape:version="1.3.2 (091e20e, 2023-11-25, custom)"
   xmlns:inkscape="http://www.inkscape.org/namespaces/inkscape"
   xmlns:sodipodi="http://sodipodi.sourceforge.net/DTD/sodipodi-0.dtd"
   xmlns="http://www.w3.org/2000/svg"
   xmlns:svg="http://www.w3.org/2000/svg">
  <defs
     id="defs1" />
  <sodipodi:namedview
     id="namedview1"
     pagecolor="#ffffff"
     bordercolor="#999999"
     borderopacity="1"
     inkscape:showpageshadow="2"
     inkscape:pageopacity="0"
     inkscape:pagecheckerboard="0"
     inkscape:deskcolor="#d1d1d1"
     showgrid="false"
     inkscape:zoom="1.0988439"
     inkscape:cx="155.16307"
     inkscape:cy="268.00894"
     inkscape:window-width="1920"
     inkscape:window-height="991"
     inkscape:window-x="-9"
     inkscape:window-y="-9"
     inkscape:window-maximized="1"
     inkscape:current-layer="g1" />
  <g
     inkscape:groupmode="layer"
     inkscape:label="Image"
     id="g1">
    <path
       style="fill:#b61818;fill-opacity:1"
       d="m 97.877308,468.09354 c 8.411962,-6.64927 23.866742,-24.43821 27.688222,-31.87001 0.9051,-1.76018 1.64955,-4.68518 1.65433,-6.5 0.0285,-10.83463 11.90011,-56.66656 19.05482,-73.56386 6.83556,-16.14356 8.96599,-23.2754 9.9282,-33.2358 1.08019,-11.18164 2.1792,-16.71993 6.21474,-31.31815 1.64481,-5.94999 2.83374,-10.95424 2.64206,-11.12057 -0.19168,-0.16633 -5.97351,-3.3448 -12.84851,-7.06328 -14.53622,-7.8622 -20.12521,-11.74042 -25.81503,-17.91315 -7.37954,-8.00585 -6.68953,-12.19637 3.55372,-21.58245 7.18733,-6.58588 18.5268,-12.61719 34.72872,-18.47173 16.05934,-5.80301 21.81519,-9.49511 32.53259,-20.86812 5.225,-5.54462 15.8,-16.39945 23.5,-24.12184 15.69158,-15.73721 18.28925,-17.31405 32.73668,-19.87184 6.35404,-1.12493 9.7074,-2.28717 12.29615,-4.26171 9.66713,-7.37348 43.1971,-51.13268 60.46166,-78.907151 8.22113,-13.225794 15.87943,-23.5 17.51668,-23.5 2.25598,0 14.80201,14.486597 19.7502,22.80507 6.83173,11.484941 8.12889,17.553491 7.44182,34.815511 -0.56831,14.27813 -0.0842,16.84657 2.95565,15.68009 2.32516,-0.89225 4.43502,-6.083 4.18625,-10.29918 -0.12809,-2.17086 0.0124,-4.19228 0.31211,-4.49203 0.29975,-0.29975 2.52451,0.35311 4.9439,1.45081 5.54659,2.51652 7.64801,2.52384 11.3989,0.0397 6.26234,-4.14739 10.75641,-1.5138 15.90269,9.3192 4.34284,9.14174 5.14561,15.17907 3.23609,24.3372 -2.00224,9.60279 -4.72253,14.63248 -12.08443,22.34359 -12.91887,13.53169 -20.77921,31.28774 -26.56109,60 -1.16293,5.775 -3.87629,15.7648 -6.02967,22.19955 -5.01495,14.98563 -6.46428,28.56291 -5.63628,52.80045 0.67631,19.79731 1.70531,25.05962 8.06854,41.26237 6.19892,15.78437 7.93219,24.49408 7.37071,37.03788 -0.38315,8.5597 -0.94741,11.32531 -3.5092,17.19975 -3.57542,8.19883 -6.07559,21.56619 -6.93187,37.06192 -0.52992,9.58961 -0.33777,11.85225 1.44367,17 2.0091,5.8056 4.23084,18.67676 4.23084,24.51044 v 2.92764 H 233.62137 93.031568 Z"
       id="path1" />
  </g>
</svg>
